<svg width="14" height="16" viewBox="0 0 14 16" fill="none" xmlns="http://www.w3.org/2000/svg">
    <g clip-path="url(#clip0)">
    <path d="M12.0523 -0.0356216H1.94645C0.889558 -0.0356216 0.0302429 0.790016 0.0302429 1.80549V14.1931C0.0302429 15.2085 0.889558 16.0342 1.94645 16.0342H12.0523C13.1092 16.0342 13.9685 15.2085 13.9685 14.1931V1.80549C13.9695 0.790016 13.1092 -0.0356216 12.0523 -0.0356216ZM5.45271 12.4996C5.65656 12.6955 5.65656 13.0139 5.45271 13.2097C5.35026 13.3082 5.21645 13.3564 5.08264 13.3564C4.94883 13.3564 4.81501 13.3072 4.71257 13.2097L4.21078 12.7276L3.70899 13.2097C3.60654 13.3082 3.47273 13.3564 3.33892 13.3564C3.20511 13.3564 3.0713 13.3072 2.96885 13.2097C2.765 13.0139 2.765 12.6955 2.96885 12.4996L3.47064 12.0175L2.96885 11.5353C2.765 11.3395 2.765 11.0211 2.96885 10.8252C3.1727 10.6294 3.50409 10.6294 3.70794 10.8252L4.20973 11.3073L4.71152 10.8252C4.91537 10.6294 5.24676 10.6294 5.45061 10.8252C5.65447 11.0211 5.65447 11.3395 5.45061 11.5353L4.95092 12.0175L5.45271 12.4996ZM5.08368 8.50199H4.73556V8.83646C4.73556 9.11368 4.5014 9.33867 4.21287 9.33867C3.92434 9.33867 3.69017 9.11368 3.69017 8.83646V8.50199H3.34101C3.05248 8.50199 2.81831 8.277 2.81831 7.99977C2.81831 7.72255 3.05248 7.49756 3.34101 7.49756H3.68912V7.16309C3.68912 6.88587 3.92329 6.66088 4.21182 6.66088C4.50035 6.66088 4.73452 6.88587 4.73452 7.16309V7.49756H5.08264C5.37116 7.49756 5.60533 7.72255 5.60533 7.99977C5.60533 8.277 5.37221 8.50199 5.08368 8.50199ZM10.6588 13.3564H8.9161C8.62757 13.3564 8.3934 13.1314 8.3934 12.8542C8.3934 12.5769 8.62757 12.3519 8.9161 12.3519H10.6588C10.9473 12.3519 11.1815 12.5769 11.1815 12.8542C11.1815 13.1314 10.9473 13.3564 10.6588 13.3564ZM10.6588 11.683H8.9161C8.62757 11.683 8.3934 11.458 8.3934 11.1808C8.3934 10.9036 8.62757 10.6786 8.9161 10.6786H10.6588C10.9473 10.6786 11.1815 10.9036 11.1815 11.1808C11.1815 11.458 10.9473 11.683 10.6588 11.683ZM10.6588 8.66973H8.9161C8.62757 8.66973 8.3934 8.44473 8.3934 8.16751C8.3934 7.89029 8.62757 7.6653 8.9161 7.6653H10.6588C10.9473 7.6653 11.1815 7.89029 11.1815 8.16751C11.1815 8.44473 10.9473 8.66973 10.6588 8.66973ZM11.8787 4.14982C11.8787 4.79566 11.332 5.32198 10.6588 5.32198H3.34101C2.66882 5.32198 2.12103 4.79666 2.12103 4.14982V3.14539C2.12103 2.49955 2.66777 1.97323 3.34101 1.97323H10.6588C11.331 1.97323 11.8787 2.49854 11.8787 3.14539V4.14982Z" fill="#FFF"/>
    </g>
</svg>
