<?xml version="1.0" encoding="utf-8"?>
<!-- Generator: Adobe Illustrator 19.2.0, SVG Export Plug-In . SVG Version: 6.00 Build 0)  -->
<svg version="1.1" id="Icons" xmlns="http://www.w3.org/2000/svg" xmlns:xlink="http://www.w3.org/1999/xlink" x="0px" y="0px"
	 viewBox="0 0 30 30" enable-background="new 0 0 30 30" xml:space="preserve">
<g id="_x33_0-parking-light-bulb">
</g>
<g id="_x32_9-license-plate-light-bulb">
</g>
<g id="_x32_7-cornering-light-bulb">
</g>
<g id="_x32_6-center-high-mount-stop-light-bulb">
</g>
<g id="_x32_0-seat-belt-light-bulb">
</g>
<g id="_x30_6-ash-tray-light-bulb">
	<path id="path_102_" fill="#595959" d="M0,19h1v8c0,0,0,2,2,2h21c0,0,1,0,1-2v-8h1v8c0,0,0,3-2,3H3c0,0-3,0-3-3V19z"/>
	
		<rect id="path_101_" x="9.9" y="22.3" transform="matrix(0.7071 -0.7071 0.7071 0.7071 -13.8129 14.7281)" fill="#595959" width="1.9" height="3.5"/>
	
		<rect id="path_103_" x="9" y="12.6" transform="matrix(0.7071 -0.7071 0.7071 0.7071 -4.1202 18.7698)" fill="#595959" width="23.1" height="3.5"/>
	<path id="path_105_" fill="#595959" d="M8.8,20.6c0,0,3.1-2.3-1.5-7c-3-3.1,0.8-6.3,0.8-6.3s-2.3,3.2,0.2,6.2
		C12,17.8,10.3,20,8.8,20.6z"/>
	<path id="path_104_" fill="#595959" d="M10.6,13.3c0,0-3.1-2.3,1.5-7C15,3.2,11.2,0,11.2,0s2.3,3.2-0.2,6.2
		C7.4,10.5,9.1,12.6,10.6,13.3z"/>
	<circle id="path_100_" fill="#FF6600" cx="3" cy="21" r="2"/>
</g>
</svg>
