<?xml version="1.0" encoding="utf-8"?>
<!-- Generator: Adobe Illustrator 19.2.0, SVG Export Plug-In . SVG Version: 6.00 Build 0)  -->
<svg version="1.1" id="Icons" xmlns="http://www.w3.org/2000/svg" xmlns:xlink="http://www.w3.org/1999/xlink" x="0px" y="0px"
	 viewBox="0 0 30 30" enable-background="new 0 0 30 30" xml:space="preserve">
<g id="_x33_0-parking-light-bulb">
</g>
<g id="_x32_9-license-plate-light-bulb">
</g>
<g id="_x32_7-cornering-light-bulb">
</g>
<g id="_x32_6-center-high-mount-stop-light-bulb">
</g>
<g id="_x32_0-seat-belt-light-bulb">
</g>
<g id="_x30_7-automatic-transmission-indicator-light-bulb">
	<polygon id="path_108_" fill="#FF6600" points="9.8,12.2 14.7,12.2 14.7,19.1 19.5,19.1 19.5,26.5 20.5,26.5 20.5,18 15.7,18 
		15.7,11.2 10.9,11.2 10.9,3.5 20.6,3.5 20.6,2.5 9.8,2.5 	"/>
	<path id="path_107_" fill="#595959" d="M26.4,25.6C26.5,25.7,26.5,25.8,26.4,25.6C26.3,25.4,26.4,25.5,26.4,25.6
		c-0.6-1.2-1.9-1.5-3.1-1.5h-1.5V30h1.5c1.1,0,2.2-0.2,2.9-1.1C26.9,28,27,26.6,26.4,25.6z M25.7,28.2c-0.4,0.9-1.5,1.1-2.4,1.1
		h-0.7v-4.5h0.7C25.2,24.8,26.6,26.3,25.7,28.2z"/>
	<polygon id="path_106_" fill="#595959" points="22.7,16.8 25.3,21.8 26.1,21.8 26.1,16 25.4,16 25.4,20.6 23.1,16 22,16 22,21.8 
		22.7,21.8 	"/>
	<path id="path_89_" fill="#595959" d="M7.3,11.3c-0.3-1-1.2-1.2-2.1-1.2H3.7V16h0.8v-2.3h0.9L7.2,16h1l-2.1-2.5
		C7,13.1,7.5,12.3,7.3,11.3z M5.2,13H4.5v-2.2h0.8C7,10.8,6.9,13,5.2,13z"/>
	<g id="path_75_">
		<path fill="#595959" d="M22.8,4h0.8c1.2,0,2.4-0.6,2.5-1.9C26.2,0.6,25,0,23.7,0H22v6.4h0.8V4z M22.8,0.7h0.8c2.1,0,2,2.5-0.1,2.5
			h-0.7V0.7z"/>
	</g>
</g>
<g id="_x30_6-ash-tray-light-bulb">
</g>
</svg>
