<?xml version="1.0" encoding="utf-8"?>
<!-- Generator: Adobe Illustrator 19.2.0, SVG Export Plug-In . SVG Version: 6.00 Build 0)  -->
<svg version="1.1" id="Icons" xmlns="http://www.w3.org/2000/svg" xmlns:xlink="http://www.w3.org/1999/xlink" x="0px" y="0px"
	 viewBox="0 0 30 30" enable-background="new 0 0 30 30" xml:space="preserve">
<g id="_x33_0-parking-light-bulb">
</g>
<g id="_x32_9-license-plate-light-bulb">
</g>
<g id="_x32_7-cornering-light-bulb">
</g>
<g id="_x32_6-center-high-mount-stop-light-bulb">
</g>
<g id="_x32_4-back-up-light-bulb">
	<path id="path_41_" fill="#FF6600" d="M30,21v-1h-9.5L20,21H30z"/>
	<path id="path_40_" fill="#FF6600" d="M30,15v-1h-9.5v0c0,0,0,0.2,0,0.5s0,0.5,0,0.5v0H30z"/>
	<path id="path_39_" fill="#FF6600" d="M30,10V9H20l0.5,1H30z"/>
	<path id="path_32_" fill="#FF6600" d="M14,23h0.5l0.2-0.4c0.1-0.1,1.3-3.2,1.3-8.1s-1.2-8-1.3-8.2L14.5,6H14C4.4,6,0,8.7,0,14.5
		C0,17.2,1.2,23,14,23z M13.7,7c0.3,0.9,1.3,3.7,1.3,7.5s-0.9,6.6-1.3,7.5C5.7,21.9,1,19.2,1,14.5C1,9.6,5.1,7.1,13.7,7z"/>
</g>
<g id="_x32_0-seat-belt-light-bulb">
</g>
<g id="_x30_6-ash-tray-light-bulb">
</g>
</svg>
