<?xml version="1.0" encoding="utf-8"?>
<!-- Generator: Adobe Illustrator 19.2.0, SVG Export Plug-In . SVG Version: 6.00 Build 0)  -->
<svg version="1.1" id="Icons" xmlns="http://www.w3.org/2000/svg" xmlns:xlink="http://www.w3.org/1999/xlink" x="0px" y="0px"
	 viewBox="0 0 30 30" enable-background="new 0 0 30 30" xml:space="preserve">
<g id="_x33_0-parking-light-bulb">
</g>
<g id="_x32_9-license-plate-light-bulb">
</g>
<g id="_x32_7-cornering-light-bulb">
</g>
<g id="_x32_6-center-high-mount-stop-light-bulb">
</g>
<g id="_x32_5-brake-light-bulb">
	<path id="path_19_" fill="#FF6600" d="M0,24.2c0,0,0,5.8,6.6,5.8c4.1,0,5.8-1.8,6.3-3.2c0.5-1.4,3.8-7.1,4.7-8.7s-0.2-2.6-1.4-2.2
		c-1,0.2-1.9,2-3.3,3.5V5.4c0-0.7-0.6-1.4-1.4-1.4h-0.1C10.7,4,10,4.6,10,5.4v9H9.4V2.4C9.4,1.6,8.8,1,8.1,1H7.9
		C7.2,1,6.6,1.6,6.6,2.4v11.9H6.1V4.2c0-0.7-0.6-1.4-1.4-1.4H4.6c-0.7,0-1.4,0.6-1.4,1.4v10.1H2.8V7c0-0.7-0.5-1.4-1.3-1.4H1.4
		C0.6,5.6,0,6.2,0,7"/>
	<g>
		<path id="path_43_" fill="#FF6600" d="M25.4,14.8c0.1,0.4,0.1,0.8,0,1.2H30v-1.2H25.4z"/>
		<path id="path_45_" fill="#FF6600" d="M21.6,12.2c0.4-0.1,0.7-0.1,1.1,0c0-1.5,0-3.1,0-4.6c-0.4,0-0.7,0-1.1,0L21.6,12.2z"/>
		<path id="path_142_" fill="#FF6600" d="M22.7,18.7c-0.4,0.1-0.8,0.1-1.2,0l0,5.2h1.2L22.7,18.7z"/>
		<path id="path_44_" fill="#FF6600" d="M24.7,17.6c-0.3,0.3-0.6,0.6-1,0.8l3.8,3.8l0.9-0.9L24.7,17.6z"/>
		<path id="path_42_" fill="#FF6600" d="M24.1,12.8c0.3,0.2,0.6,0.5,0.9,0.9l3.7-3.8L27.8,9L24.1,12.8z"/>
	</g>
</g>
<g id="_x32_0-seat-belt-light-bulb">
</g>
<g id="_x30_6-ash-tray-light-bulb">
</g>
</svg>
