<?xml version="1.0" encoding="utf-8"?>
<!-- Generator: Adobe Illustrator 19.2.0, SVG Export Plug-In . SVG Version: 6.00 Build 0)  -->
<svg version="1.1" id="Icons" xmlns="http://www.w3.org/2000/svg" xmlns:xlink="http://www.w3.org/1999/xlink" x="0px" y="0px"
	 viewBox="0 0 30 30" enable-background="new 0 0 30 30" xml:space="preserve">
<g id="_x33_0-parking-light-bulb">
</g>
<g id="_x32_9-license-plate-light-bulb">
</g>
<g id="_x32_7-cornering-light-bulb">
</g>
<g id="_x32_6-center-high-mount-stop-light-bulb">
</g>
<g id="_x32_0-seat-belt-light-bulb">
</g>
<g id="_x30_8-clock-light">
	<path id="path_7_" fill="#595959" d="M15,0C6.7,0,0,6.7,0,15c0,8.3,6.7,15,15,15s15-6.7,15-15C30,6.7,23.3,0,15,0z M15,29
		C7.3,29,1,22.7,1,15C1,7.3,7.3,1,15,1s14,6.3,14,14C29,22.7,22.7,29,15,29z"/>
	<polygon id="path_10_" fill="#FF6600" points="15.5,14.5 15.5,6.5 14.5,6.5 14.5,15.5 23.5,15.5 23.5,14.5 	"/>
</g>
<g id="_x30_6-ash-tray-light-bulb">
</g>
</svg>
