<?xml version="1.0" encoding="utf-8"?>
<!-- Generator: Adobe Illustrator 19.2.0, SVG Export Plug-In . SVG Version: 6.00 Build 0)  -->
<svg version="1.1" id="Icons" xmlns="http://www.w3.org/2000/svg" xmlns:xlink="http://www.w3.org/1999/xlink" x="0px" y="0px"
	 viewBox="0 0 30 30" enable-background="new 0 0 30 30" xml:space="preserve">
<g id="_x33_0-parking-light-bulb">
</g>
<g id="_x32_9-license-plate-light-bulb">
</g>
<g id="_x32_7-cornering-light-bulb">
	<path id="path_86_" fill="#FF6600" d="M16.3,21c-0.3-0.9-1.3-3.7-1.3-7.5c0-3.9,1-6.6,1.3-7.5H17V5h-1h-0.5l-0.2,0.3
		C15.2,5.5,14,8.6,14,13.5s1.2,8,1.3,8.2l0.2,0.3H16c9.6,0,14-2.7,14-8.5h-1C29.1,18.4,24.9,20.9,16.3,21z"/>
	<path id="path_84_" fill="#FF6600" d="M22.8,8.1l-1-1.5c0,0,2.2,0.5,4.1,1.7s2.5,2.7,2.5,2.7h1.1c0,0-0.8-2.3-3.1-3.7
		s-4.3-1.7-4.3-1.7l1.2-0.9l-1.4-0.3l-2,1.3l1.4,2L22.8,8.1z"/>
	<path id="path_61_" fill="#FF6600" d="M10.8,22.8l0.3-1.3L0,24.8V26L10.8,22.8z"/>
	<path id="path_60_" fill="#FF6600" d="M0,21v1.3L10.3,19l0.3-1.3L0,21z"/>
	<path id="path_59_" fill="#FF6600" d="M0,17v1.2l10-3l0.3-1.3L0,17z"/>
	<path id="path_58_" fill="#FF6600" d="M0,13v1.2l10.3-3l0.3-1.3L0,13z"/>
	<path id="path_57_" fill="#FF6600" d="M0,9v1.3l10.8-3L11,6L0,9z"/>
</g>
<g id="_x32_6-center-high-mount-stop-light-bulb">
</g>
<g id="_x32_0-seat-belt-light-bulb">
</g>
<g id="_x30_6-ash-tray-light-bulb">
</g>
</svg>
