<?xml version="1.0" encoding="utf-8"?>
<!-- Generator: Adobe Illustrator 19.2.0, SVG Export Plug-In . SVG Version: 6.00 Build 0)  -->
<svg version="1.1" id="Icons" xmlns="http://www.w3.org/2000/svg" xmlns:xlink="http://www.w3.org/1999/xlink" x="0px" y="0px"
	 viewBox="0 0 30 30" enable-background="new 0 0 30 30" xml:space="preserve">
<g id="_x33_0-parking-light-bulb">
</g>
<g id="_x32_9-license-plate-light-bulb">
</g>
<g id="_x32_7-cornering-light-bulb">
</g>
<g id="_x32_6-center-high-mount-stop-light-bulb">
</g>
<g id="_x32_0-seat-belt-light-bulb">
</g>
<g id="_x30_9-courtesy-light-bulb">
	<circle id="path_17_" fill="#595959" cx="23" cy="17.8" r="1.8"/>
	<circle id="path_16_" fill="#595959" cx="6" cy="17.8" r="1.8"/>
	<path fill="#595959" d="M10.3,16.7l-0.1-3c0,0,2.6-1.8,3-1.9c0.4-0.2,3.1-0.6,3.1-0.6l-0.8,2.4l-0.2,3.1 M20.3,18
		c0.1,0,0.2-0.3,0.2-0.8c0-1.2,1-2.2,2.5-2.2s2.5,1,2.5,2.2c0,0.7,0,0.8,0,0.8h1.3c0.3,0,1.7-0.6,1.9-0.7c0.3-0.1,1.3-0.4,1.3-0.6
		c0,0,0-1.7,0-1.7c0-0.2-0.6-0.5-0.6-0.5s0-1.5-0.4-1.7c-0.4-0.2-3.1-0.6-3.1-0.6s-3-1.8-4.7-2c-1.8-0.3-4.6-0.1-4.6-0.1
		s-3.6,0.2-4.4,0.5c-0.7,0.2-4.1,2.1-4.1,2.1s-2.3,0.2-3.5,0.5c-1.2,0.3-3.5,0.9-3.8,1.1s-0.4,0.7-0.4,0.9c0,0.1,0,0.3-0.2,0.4
		c-0.2,0-0.3,0.2-0.3,0.2v0c0,0,0,0.8,0,0.8c0,0.1,0.4,0.2,0.4,0.2s0,0.5,0,0.6S0.6,18,0.8,18h2.7c0,0,0-0.6,0-0.8
		C3.5,16,4.5,15,6,15c1.5,0,2.5,1,2.5,2.2c0,0.6,0,0.8,0.3,0.8 M21.5,12.7c-0.3,0.3-1.9,2.7-1.9,2.7l-0.7,1.4h-2.7l0.2-2.9l0.9-2.7
		c0,0,1.5,0,2.8,0.2c0.7,0.1,1.3,0.4,1.5,0.5C21.7,11.9,21.8,12.3,21.5,12.7z"/>
	<circle id="path_31_" fill="#FF6600" cx="12.9" cy="17.5" r="2"/>
</g>
<g id="_x30_6-ash-tray-light-bulb">
</g>
</svg>
