<?xml version="1.0" encoding="utf-8"?>
<!-- Generator: Adobe Illustrator 19.2.0, SVG Export Plug-In . SVG Version: 6.00 Build 0)  -->
<svg version="1.1" id="Icons" xmlns="http://www.w3.org/2000/svg" xmlns:xlink="http://www.w3.org/1999/xlink" x="0px" y="0px"
	 viewBox="0 0 30 30" enable-background="new 0 0 30 30" xml:space="preserve">
<g id="_x33_0-parking-light-bulb">
</g>
<g id="_x32_9-license-plate-light-bulb">
</g>
<g id="_x32_7-cornering-light-bulb">
</g>
<g id="_x32_6-center-high-mount-stop-light-bulb">
</g>
<g id="_x32_0-seat-belt-light-bulb">
</g>
<g id="_x31_1-engine-compartment-light-bulb">
	<path id="path_22_" fill="#FF6600" d="M8,7.4l-6,6.9c1.6-0.6,5.8-1.7,7.7-2.2s5.4-0.9,7-1.1c-1.3-0.7-5.4-2.4-6.1-2.7
		C9.9,8,8,7.4,8,7.4z"/>
	<path id="path_23_" fill="#595959" d="M12.5,17C10.6,17,9,18.6,9,20.5s1.6,3.5,3.5,3.5s3.5-1.6,3.5-3.5S14.4,17,12.5,17z M12.5,23
		c-1.4,0-2.5-1.1-2.5-2.5c0-1.4,1.1-2.5,2.5-2.5s2.5,1.1,2.5,2.5C15,21.9,13.9,23,12.5,23z"/>
	<path id="path_20_" fill="#595959" d="M19.1,12.3c1.9-1.2,5.4-3.6,6.3-4.1c0.5-0.3,1.5-0.5,2.8-0.6c-0.2-0.6-0.5-1.1-0.8-1.5
		c-1.1,0.1-1.9,0.3-2.3,0.5c-1.1,0.6-7.6,3.7-7.6,3.7s-5.8-2.6-6.7-3C9.9,7,3.3,4.8,2.8,5.1l0.4,0.9C3.6,5.8,9.8,8,10.6,8.3
		c0.8,0.3,6.1,2.7,6.1,2.7s-4.8,0.5-7,1.1c-2.5,0.6-7.3,1.7-7.7,2.2s-0.9,1.4-0.9,1.8c0,0.5-0.4,0.8-0.7,0.8c-0.3,0-0.5,0.1-0.5,0.3
		v1.5c0,0.5,0.8,0.5,0.8,0.5s0,0.9,0,1.2c0,0.4,0.4,1,0.8,1c0.4,0,6,0,6,0s0-0.6,0-1.1c0-2.6,1.8-4.9,5-4.9c3.1,0,5,2.3,5,4.9
		c0,0.9,0.2,1.4,0.8,1.4c0.5,0,5.5,0,9.9,0c1.1-2.2,1.7-4.7,1.7-7.3c0-0.7-0.1-1.9-0.1-1.9l-10.6,0.7C18.8,13.2,18.4,12.8,19.1,12.3
		z"/>
</g>
<g id="_x30_6-ash-tray-light-bulb">
</g>
</svg>
