<?xml version="1.0" encoding="utf-8"?>
<!-- Generator: Adobe Illustrator 19.2.0, SVG Export Plug-In . SVG Version: 6.00 Build 0)  -->
<svg version="1.1" id="Icons" xmlns="http://www.w3.org/2000/svg" xmlns:xlink="http://www.w3.org/1999/xlink" x="0px" y="0px"
	 viewBox="0 0 30 30" enable-background="new 0 0 30 30" xml:space="preserve">
<g id="_x33_0-parking-light-bulb">
</g>
<g id="_x32_9-license-plate-light-bulb">
</g>
<g id="_x32_7-cornering-light-bulb">
</g>
<g id="_x32_6-center-high-mount-stop-light-bulb">
</g>
<g id="_x32_0-seat-belt-light-bulb">
</g>
<g id="_x30_6-ash-tray-light-bulb">
</g>
<g id="_x30_2-fog-light-bulb-rear">
	<path id="path" fill="#FF6600" d="M13.9,15c0-7.9-1.7-13-1.7-13.3L12,1.3h-0.5C5.4,1.3,0,7.6,0,14.9c0,7.5,5.1,13.6,11.4,13.6H12
		l0.1-0.4C12.2,27.8,13.9,22.9,13.9,15z M11,27.1c-5.4-0.3-9.6-5.7-9.6-12.2c0-6.3,4.4-12,9.6-12.2c0.4,1.5,1.6,6.1,1.6,12.4
		C12.5,21.3,11.4,25.6,11,27.1z"/>
	<path id="path_1_" fill="#FF6600" d="M30,7.5h-6.5c0,0,0-0.6,0-0.8c0-1.2,0.3-2,0.8-2.7S25,2.5,25,1h-1.3c0,1.2-0.3,1.8-0.8,2.5
		S22.3,5,22.3,6.7c0,0.3,0,0.8,0,0.8H17V9h5.5c0,0,1,1.1,1,2.8S23,14.3,23,14.3h-6v1.5h5.8c0,0-0.5,1.3-0.5,2.5s0.5,2.8,0.5,2.8H17
		v1.5h6.3c0,0,0.2,0.3,0.2,1c0,1.2-0.3,2.1-0.8,2.8S22,27.5,22,29h1.3c0-1.2,0.3-1.6,0.8-2.3c0.4-0.7,0.8-1.8,0.8-3.3
		c0-0.5-0.1-1-0.1-1H30V21h-5.8c0,0-0.8-1.5-0.8-2.8s0.5-2.5,0.5-2.5h6v-1.5h-5.5c0,0,0.3-0.8,0.3-2.5S24,9,24,9h6V7.5z"/>
</g>
</svg>
