<?xml version="1.0" encoding="utf-8"?>
<!-- Generator: Adobe Illustrator 19.2.0, SVG Export Plug-In . SVG Version: 6.00 Build 0)  -->
<svg version="1.1" id="Icons" xmlns="http://www.w3.org/2000/svg" xmlns:xlink="http://www.w3.org/1999/xlink" x="0px" y="0px"
	 viewBox="0 0 30 30" enable-background="new 0 0 30 30" xml:space="preserve">
<g id="_x33_0-parking-light-bulb">
</g>
<g id="_x32_9-license-plate-light-bulb">
</g>
<g id="_x32_7-cornering-light-bulb">
</g>
<g id="_x32_6-center-high-mount-stop-light-bulb">
</g>
<g id="_x32_0-seat-belt-light-bulb">
</g>
<g id="_x30_6-ash-tray-light-bulb">
</g>
<g id="_x30_1-fog-light-bulb-front">
	<path id="path_3_" fill="#FF6600" d="M18.6,1h-0.5l-0.1,0.4c-0.1,0.3-1.7,5.1-1.7,13s1.7,13,1.7,13.3l0.1,0.4h0.5
		c6,0,11.4-6.3,11.4-13.5C30,7,24.9,1,18.6,1z M19,26.7c-0.4-1.5-1.6-6-1.6-12.3S18.6,3.7,19,2.3c5.4,0.3,9.5,5.6,9.5,12.2
		C28.7,20.8,24.2,26.4,19,26.7z"/>
	<path id="path_4_" fill="#FF6600" d="M13,4L6.5,7.3c0,0,0-0.3,0-0.6c0-1.2,0.3-2,0.8-2.7S8,2.5,8,1H6.8c0,1.2-0.3,1.8-0.8,2.5
		S5.3,5,5.3,6.7c0,0.3,0,1.1,0,1.1L0,10.5V12l5.8-3c0,0,0.8,1.1,0.8,2.8S6,15,6,15l-6,3v1.5l5.8-3c0,0-0.5,1.3-0.5,2.5S6,22,6,22
		l-6,3v1.5l6.5-3.3V24c0,1.2-0.3,1.6-0.8,2.3S5,27.5,5,29h1.3c0-1.2,0.3-1.6,0.8-2.3c0.4-0.7,0.8-1.8,0.8-3.3c0-0.5,0-0.8,0-0.8
		L13,20v-1.5l-5.8,3c0,0-0.8-1.3-0.8-2.5s0.8-3.3,0.8-3.3l5.8-3.3V11l-5.5,3.3c0,0,0.3-0.8,0.3-2.5S7,8.5,7,8.5l6-3V4z"/>
</g>
</svg>
