<?xml version="1.0" encoding="utf-8"?>
<!-- Generator: Adobe Illustrator 19.2.0, SVG Export Plug-In . SVG Version: 6.00 Build 0)  -->
<svg version="1.1" id="Icons" xmlns="http://www.w3.org/2000/svg" xmlns:xlink="http://www.w3.org/1999/xlink" x="0px" y="0px"
	 viewBox="0 0 30 30" enable-background="new 0 0 30 30" xml:space="preserve">
<g id="_x33_0-parking-light-bulb">
</g>
<g id="_x32_9-license-plate-light-bulb">
</g>
<g id="_x32_7-cornering-light-bulb">
</g>
<g id="_x32_6-center-high-mount-stop-light-bulb">
</g>
<g id="_x32_0-seat-belt-light-bulb">
</g>
<g id="_x31_2-glove-box-light-bulb">
	<polygon id="path_30_" fill="#FF6600" points="3.3,12.8 8.6,17.7 11,13.8 11.2,13.5 	"/>
	<path id="path_29_" fill="#595959" d="M10.9,8.8L1.1,7.7c-0.2,0.5-0.4,1-0.5,1.4l9.2,1l0.6,2L0,11.2c0,0.1,0,0.2,0,0.3l4.7,4.4
		c-0.3,0.3-0.6,0.5-0.9,0.9c-1.3,1.3-2.3,2.8-2.9,4.1c0.3,0.7,0.5,1.2,0.9,1.8c0.5-1.5,1.4-3.3,3.1-5c0.3-0.3,0.7-0.6,1-0.9l2,1.9
		l0.5-0.5l0,0l0.5-0.5l-0.1-0.1l-5-4.7l7.4,0.7h0.3h0.1l0,0h0.1l0.9-0.1L10.9,8.8z M11.5,13L11.5,13L11.5,13L11.5,13z"/>
	<path id="path_27_" fill="#595959" d="M29.9,17.2c0.2-0.3,0.2-0.7,0-1l-3.7-7.4c-0.2-0.3-0.4-0.5-0.8-0.5c-0.3,0-0.7,0.1-0.9,0.3
		l-3.9,4.4l-5.6,1.5c-0.5,0.1-0.8,0.7-0.7,1.1c0.1,0.5,0.7,0.8,1.1,0.7l5.9-1.6c0.2-0.1,0.4-0.2,0.5-0.3L25,11l2.4,4.8l-7,0.1
		c-0.4,0-0.8,0.3-0.9,0.6l-3.2,8.3c-0.2,0.5,0.1,1.1,0.6,1.2c0.1,0,0.2,0.1,0.4,0.1c0.4,0,0.8-0.2,0.9-0.6l2.9-7.7l7.8-0.1
		C29.4,17.7,29.7,17.5,29.9,17.2z"/>
	<circle id="path_28_" fill="#595959" cx="21.5" cy="6.3" r="2.3"/>
</g>
<g id="_x30_6-ash-tray-light-bulb">
</g>
</svg>
