<?xml version="1.0" encoding="utf-8"?>
<!-- Generator: Adobe Illustrator 19.2.0, SVG Export Plug-In . SVG Version: 6.00 Build 0)  -->
<svg version="1.1" id="Icons" xmlns="http://www.w3.org/2000/svg" xmlns:xlink="http://www.w3.org/1999/xlink" x="0px" y="0px"
	 viewBox="0 0 30 30" enable-background="new 0 0 30 30" xml:space="preserve">
<g id="_x33_0-parking-light-bulb">
</g>
<g id="_x32_9-license-plate-light-bulb">
</g>
<g id="_x32_7-cornering-light-bulb">
</g>
<g id="_x32_6-center-high-mount-stop-light-bulb">
</g>
<g id="_x32_0-seat-belt-light-bulb">
</g>
<g id="_x30_6-ash-tray-light-bulb">
</g>
<g id="_x30_4-headlight-bulb-high-beam-and-low-beam">
	
		<rect id="path_64_" x="-5.7" y="14.5" transform="matrix(0.7071 -0.7071 0.7071 0.7071 -6.2132 15.0001)" fill="#FF6600" width="41.5" height="0.9"/>
	<path id="path_65_" fill="#FF6600" d="M7.8,8.5H8c4.8,0,7-1.4,7-4.2C15,2.9,14.4,0,8,0H7.8L7.7,0.2C7.6,0.2,7,1.8,7,4.3
		s0.6,4,0.7,4.1L7.8,8.5z M8.1,0.5c4,0.1,6.4,1.4,6.4,3.8c0,2.5-2.1,3.7-6.4,3.7C8,7.6,7.5,6.2,7.5,4.3S8,0.9,8.1,0.5z"/>
	<polygon id="path_66_" fill="#FF6600" points="5.3,8 0,8 0,8.5 5.5,8.5 	"/>
	<polygon id="path_67_" fill="#FF6600" points="4.8,6 0,6 0,6.5 5,6.5 	"/>
	<path id="path_63_" fill="#FF6600" d="M4.8,4.5c0,0,0-0.1,0-0.2c0-0.2,0-0.2,0-0.2v0H0v0.5L4.8,4.5L4.8,4.5z"/>
	<polygon id="path_56_" fill="#FF6600" points="5,2 0,2 0,2.5 4.8,2.5 	"/>
	<polygon id="path_55_" fill="#FF6600" points="5.5,0 0,0 0,0.5 5.3,0.5 	"/>
	<polygon id="path_54_" fill="#FF6600" points="15.4,30 20.6,28.4 20.8,27.8 15.4,29.4 	"/>
	<polygon id="path_53_" fill="#FF6600" points="15.4,28.2 20.4,26.6 20.5,26 15.4,27.6 	"/>
	<polygon id="path_52_" fill="#FF6600" points="15.4,25.6 15.4,26.2 20.3,24.8 20.4,24.2 	"/>
	<polygon id="path_51_" fill="#FF6600" points="15.4,23.7 15.4,24.3 20.4,22.8 20.5,22.2 	"/>
	<polygon id="path_46_" fill="#FF6600" points="15.4,22.3 20.6,20.9 20.8,20.3 15.4,21.7 	"/>
	<path id="path_35_" fill="#FF6600" d="M23,19.9h-0.3L22.7,20c-0.1,0.1-0.7,1.6-0.7,4.1s0.6,4,0.7,4.1l0.1,0.2H23c4.8,0,7-1.4,7-4.2
		C30,22.8,29.4,19.9,23,19.9z M23.1,27.9c-0.2-0.4-0.6-1.8-0.6-3.8s0.5-3.3,0.6-3.8c4,0.1,6.4,1.4,6.4,3.8
		C29.5,26.6,27.4,27.8,23.1,27.9z"/>
</g>
</svg>
