<?xml version="1.0" encoding="utf-8"?>
<!-- Generator: Adobe Illustrator 19.2.0, SVG Export Plug-In . SVG Version: 6.00 Build 0)  -->
<svg version="1.1" id="Icons" xmlns="http://www.w3.org/2000/svg" xmlns:xlink="http://www.w3.org/1999/xlink" x="0px" y="0px"
	 viewBox="0 0 30 30" enable-background="new 0 0 30 30" xml:space="preserve">
<g id="_x33_0-parking-light-bulb">
</g>
<g id="_x32_9-license-plate-light-bulb">
</g>
<g id="_x32_7-cornering-light-bulb">
</g>
<g id="_x32_6-center-high-mount-stop-light-bulb">
</g>
<g id="_x32_0-seat-belt-light-bulb">
</g>
<g id="_x30_6-ash-tray-light-bulb">
</g>
<g id="_x30_5-headlight-bulb-low-beam">
	<path id="path_62_" fill="#FF6600" d="M16,5h-0.5l-0.2,0.3C15.2,5.5,14,8.6,14,13.5s1.2,8,1.3,8.2l0.2,0.3H16c9.6,0,14-2.7,14-8.5
		C30,10.8,28.8,5,16,5z M16.3,21c-0.3-0.9-1.3-3.7-1.3-7.5s0.9-6.6,1.3-7.5C24.3,6.1,29,8.8,29,13.5C29,18.4,24.9,20.9,16.3,21z"/>
	<path id="path_15_" fill="#FF6600" d="M10.8,22.8l0.3-1.3L0,24.8V26L10.8,22.8z"/>
	<path id="path_14_" fill="#FF6600" d="M0,21v1.3L10.3,19l0.3-1.3L0,21z"/>
	<path id="path_13_" fill="#FF6600" d="M0,17v1.2l10-3l0.3-1.3L0,17z"/>
	<path id="path_12_" fill="#FF6600" d="M0,13v1.2l10.3-3l0.3-1.3L0,13z"/>
	<path id="path_11_" fill="#FF6600" d="M0,9v1.3l10.8-3L11,6L0,9z"/>
</g>
</svg>
