<?xml version="1.0" encoding="utf-8"?>
<!-- Generator: Adobe Illustrator 19.2.0, SVG Export Plug-In . SVG Version: 6.00 Build 0)  -->
<svg version="1.1" id="Icons" xmlns="http://www.w3.org/2000/svg" xmlns:xlink="http://www.w3.org/1999/xlink" x="0px" y="0px"
	 viewBox="0 0 30 30" enable-background="new 0 0 30 30" xml:space="preserve">
<g id="_x33_0-parking-light-bulb">
</g>
<g id="_x32_9-license-plate-light-bulb">
</g>
<g id="_x32_7-cornering-light-bulb">
</g>
<g id="_x32_6-center-high-mount-stop-light-bulb">
</g>
<g id="_x32_0-seat-belt-light-bulb">
</g>
<g id="_x30_6-ash-tray-light-bulb">
</g>
<g id="_x30_3-headlight-bulb-high-beam">
	<path id="path_50_" fill="#FF6600" d="M16,7h-0.5l-0.2,0.3c-0.1,0.1-1.3,3.2-1.3,8.1s1.2,8,1.3,8.2l0.2,0.3H16c9.6,0,14-2.7,14-8.5
		C30,12.8,28.8,7,16,7z M16.3,23c-0.3-0.9-1.3-3.7-1.3-7.5s0.9-6.6,1.3-7.5C24.3,8.1,29,10.8,29,15.5C29,20.4,24.9,22.9,16.3,23z"/>
	<path id="path_2_" fill="#FF6600" d="M0,23v1h11l-0.5-1H0z"/>
	<path id="path_5_" fill="#FF6600" d="M0,19v1h10l-0.5-1H0z"/>
	<path id="path_6_" fill="#FF6600" d="M0,15v1h9.5v0c0,0-0.1-0.2-0.1-0.5S9.5,15,9.5,15v0H0z"/>
	<path id="path_8_" fill="#FF6600" d="M0,11v1h9.5l0.5-1H0z"/>
	<path id="path_9_" fill="#FF6600" d="M0,7v1h10.5L11,7H0z"/>
</g>
</svg>
