<svg id="Icons" xmlns="http://www.w3.org/2000/svg" viewBox="0 0 30 30"><defs><style>.cls-1{fill:#595959;}.cls-2{fill:#f60;}</style></defs><title>vlrg-icon</title><g id="_14-instrument-panel-light-bulb" data-name="14-instrument-panel-light-bulb"><path id="path" class="cls-1" d="M15.1,8.7A6.4,6.4,0,0,0,8.5,15a6.4,6.4,0,0,0,6.5,6.3A6.4,6.4,0,0,0,21.6,15,6.4,6.4,0,0,0,15.1,8.7Zm0,11.6A5.4,5.4,0,0,1,9.6,15a5.4,5.4,0,0,1,5.5-5.3A5.4,5.4,0,0,1,20.5,15,5.4,5.4,0,0,1,15.1,20.3Z"/><path id="path-2" data-name="path" class="cls-1" d="M5.2,19.4a4.2,4.2,0,0,1,0-8.4A4.5,4.5,0,0,1,8,12l0.5-.8A5.2,5.2,0,1,0,8.6,19L8,18.3A4.5,4.5,0,0,1,5.2,19.4Z"/><path id="path-3" data-name="path" class="cls-1" d="M24.8,10a5.1,5.1,0,0,0-3.3,1.2L22,12a4.5,4.5,0,0,1,2.8-1.1,4.2,4.2,0,0,1,0,8.4A4.5,4.5,0,0,1,22,18.3l-0.6.7A5.2,5.2,0,1,0,24.8,10Z"/><path id="path-4" data-name="path" class="cls-2" d="M5.6,14.7a0.6,0.6,0,1,1-1,.2l-0.7-.9L3,13l1.1,0.9L5,14.6A0.6,0.6,0,0,1,5.6,14.7Z"/><path id="path-5" data-name="path" class="cls-2" d="M25.4,14.9l0.7-.8L27,13l-1.1.9-0.9.7A0.6,0.6,0,1,0,25.4,14.9Z"/><path id="path-6" data-name="path" class="cls-2" d="M15.5,14.3l-0.2-1.7-0.2-2.2-0.2,2.2-0.2,1.7A1,1,0,1,0,15.5,14.3Z"/></g></svg>