<?xml version="1.0" encoding="utf-8"?>
<!-- Generator: Adobe Illustrator 19.2.0, SVG Export Plug-In . SVG Version: 6.00 Build 0)  -->
<svg version="1.1" id="Icons" xmlns="http://www.w3.org/2000/svg" xmlns:xlink="http://www.w3.org/1999/xlink" x="0px" y="0px"
	 viewBox="0 0 30 30" enable-background="new 0 0 30 30" xml:space="preserve">
<g id="_x33_0-parking-light-bulb">
</g>
<g id="_x32_9-license-plate-light-bulb">
</g>
<g id="_x32_7-cornering-light-bulb">
</g>
<g id="_x32_6-center-high-mount-stop-light-bulb">
</g>
<g id="_x32_0-seat-belt-light-bulb">
</g>
<g id="_x31_5-interior-door-light-bulb">
	<path id="path_33_" fill="#595959" d="M14,1.9c-3.8,1.7-14,9.7-14,9.7v15.9l25.5-0.1c0,0,1.6-17.2,1.7-17.9C27.3,9,29.1,0,29.1,0
		C29.1,0.1,17.7,0.2,14,1.9z M24.4,14l-6,0.2l0,0c-0.3,0-0.6-0.2-0.6-0.6c0-0.3,0.2-0.6,0.6-0.6l6-0.2c0.3,0,0.6,0.2,0.6,0.6
		C25,13.8,24.6,14,24.4,14z M25,10c0,0-11.1,0.4-20.6,1.1c0,0,7.7-6.2,11.5-7.6s10.4-1.3,10.4-1.3L25,10z"/>
	<circle id="path_24_" fill="#FF6600" cx="13" cy="27.5" r="2.5"/>
</g>
<g id="_x30_6-ash-tray-light-bulb">
</g>
</svg>
