<?xml version="1.0" encoding="utf-8"?>
<!-- Generator: Adobe Illustrator 19.2.0, SVG Export Plug-In . SVG Version: 6.00 Build 0)  -->
<svg version="1.1" id="Icons" xmlns="http://www.w3.org/2000/svg" xmlns:xlink="http://www.w3.org/1999/xlink" x="0px" y="0px"
	 viewBox="0 0 30 30" enable-background="new 0 0 30 30" xml:space="preserve">
<g id="_x33_0-parking-light-bulb">
</g>
<g id="_x32_9-license-plate-light-bulb">
</g>
<g id="_x32_7-cornering-light-bulb">
</g>
<g id="_x32_6-center-high-mount-stop-light-bulb">
</g>
<g id="_x32_0-seat-belt-light-bulb">
</g>
<g id="_x31_6-map-light-bulb">
	<path id="path_112_" fill="#FF6600" d="M13.4,14.4l0.5-0.1L13.7,13c0.1,0,0.2-0.1,0.3-0.2l1.5,1l0.3-0.4l-1.5-1
		c0-0.1,0.1-0.2,0.1-0.3l1.9-0.3l-0.1-0.5l-3,0.5l-0.9,0.6c0.1,0.2,0.2,0.4,0.2,0.4l-1,1.5l0.4,0.3l1.1-1.5c0.1,0,0.2,0.1,0.3,0.1
		L13.4,14.4L13.4,14.4z"/>
	<circle id="path_49_" fill="#595959" cx="23" cy="17.8" r="1.8"/>
	<circle id="path_47_" fill="#595959" cx="6" cy="17.8" r="1.8"/>
	<path fill="#595959" d="M29.4,14.5c0,0,0-1.5-0.4-1.7c-0.4-0.2-3.1-0.6-3.1-0.6s-3-1.8-4.7-2c-1.8-0.3-4.6-0.1-4.6-0.1
		s-3.6,0.2-4.4,0.5c-0.7,0.2-4.1,2.1-4.1,2.1s-2.3,0.2-3.5,0.5c-1.2,0.3-3.5,0.9-3.8,1.1s-0.4,0.7-0.4,0.9c0,0.1,0,0.3-0.2,0.4
		c-0.2,0-0.3,0.2-0.3,0.2v0c0,0,0,0.8,0,0.8c0,0.1,0.4,0.2,0.4,0.2s0,0.5,0,0.6S0.6,18,0.8,18h2.7c0,0,0-0.6,0-0.8
		C3.5,16,4.5,15,6,15c1.5,0,2.5,1,2.5,2.2c0,0.6,0,0.8,0.3,0.8c0.3,0,11.5,0,11.5,0c0.1,0,0.2-0.3,0.2-0.8c0-1.2,1-2.2,2.5-2.2
		s2.5,1,2.5,2.2c0,0.7,0,0.8,0,0.8h1.3c0.3,0,1.7-0.6,1.9-0.7c0.3-0.1,1.3-0.4,1.3-0.6c0,0,0-1.7,0-1.7C30,14.8,29.4,14.5,29.4,14.5
		z M21.5,12.7c-0.3,0.3-1.9,2.7-1.9,2.7l-0.7,1.4l-8.6,0l-0.1-3c0,0,2.6-1.8,3-1.9c0.2-0.1,3.1-0.6,3.1-0.6l1-0.1c0,0,1.8,0,2.8,0.2
		c0.7,0.1,1.3,0.4,1.5,0.5C21.7,11.9,21.8,12.3,21.5,12.7z"/>
</g>
<g id="_x30_6-ash-tray-light-bulb">
</g>
</svg>
