<?xml version="1.0" encoding="utf-8"?>
<!-- Generator: Adobe Illustrator 19.2.0, SVG Export Plug-In . SVG Version: 6.00 Build 0)  -->
<svg version="1.1" id="Icons" xmlns="http://www.w3.org/2000/svg" xmlns:xlink="http://www.w3.org/1999/xlink" x="0px" y="0px"
	 viewBox="0 0 30 30" enable-background="new 0 0 30 30" xml:space="preserve">
<g id="_x33_0-parking-light-bulb">
</g>
<g id="_x32_9-license-plate-light-bulb">
</g>
<g id="_x32_7-cornering-light-bulb">
</g>
<g id="_x32_6-center-high-mount-stop-light-bulb">
</g>
<g id="_x32_0-seat-belt-light-bulb">
</g>
<g id="_x31_7-parking-brake-indicator-light">
	<path id="path_125_" fill="#595959" d="M15,4.9c5.6,0,10.2,4.6,10.2,10.2S20.6,25.2,15,25.2S4.8,20.7,4.8,15.1S9.4,4.9,15,4.9
		 M15,3.9c-6.2,0-11.2,5-11.2,11.2s5,11.2,11.2,11.2c6.2,0,11.2-5,11.2-11.2S21.2,3.9,15,3.9L15,3.9z"/>
	<g id="path_124_">
		<path fill="#595959" d="M5.6,3.4C5.6,3.4,5.6,3.4,5.6,3.4C2,6.3,0,10.5,0,15.1c0,4.6,2,8.8,5.6,11.7c0,0,0,0,0,0L6.2,26
			c0,0,0,0,0,0C2.9,23.3,1,19.3,1,15.1c0-4.3,1.9-8.2,5.2-10.9c0,0,0,0,0,0L5.6,3.4L5.6,3.4z"/>
	</g>
	<g id="path_123_">
		<path fill="#595959" d="M24.4,3.4l-0.6,0.8c0,0,0,0,0,0c3.3,2.7,5.2,6.7,5.2,10.9c0,4.3-1.9,8.2-5.2,10.9c0,0,0,0,0,0l0.6,0.8
			c0,0,0,0,0,0C28,23.9,30,19.6,30,15.1C30,10.5,28,6.3,24.4,3.4C24.4,3.4,24.4,3.4,24.4,3.4L24.4,3.4z"/>
	</g>
	<g id="path_122_">
		<path fill="#595959" d="M20.6,10.2c-0.3-0.6-0.7-1-1.3-1.4c-0.5-0.3-1-0.6-1.7-0.7C17,8,16.2,7.9,15.3,7.9h-4v14.9h2v-5.6h2
			c1.1,0,2-0.1,2.7-0.4c0.7-0.3,1.3-0.6,1.8-1.2c0.4-0.4,0.7-0.9,1-1.5c0.2-0.6,0.3-1.2,0.3-1.8C21,11.5,20.9,10.8,20.6,10.2z
			 M16.9,15.3c-0.6,0.2-3.6,0.2-3.6,0.2V9.6c0,0,2.8-0.1,3.5,0.1c1.7,0.4,2.2,1.3,2.2,2.9C18.9,14.2,17.8,15,16.9,15.3z"/>
	</g>
</g>
<g id="_x30_6-ash-tray-light-bulb">
</g>
</svg>
