<?xml version="1.0" encoding="utf-8"?>
<!-- Generator: Adobe Illustrator 19.2.0, SVG Export Plug-In . SVG Version: 6.00 Build 0)  -->
<svg version="1.1" id="Icons" xmlns="http://www.w3.org/2000/svg" xmlns:xlink="http://www.w3.org/1999/xlink" x="0px" y="0px"
	 viewBox="0 0 30 30" enable-background="new 0 0 30 30" xml:space="preserve">
<g id="_x33_0-parking-light-bulb">
	<path id="path_74_" fill="#59595A" d="M16.2,6.5H0v16.2h16.2V6.5z M9.5,16.2H5.9v4.4H3.4V8.4h6c1.9,0,3.8,1.3,3.8,3.9
		C13.4,14.3,12.1,16.2,9.5,16.2z"/>
	<path id="path_73_" fill="#59595A" d="M8.7,10.5H5.9v3.6h2.5c1.2,0,2.3-0.5,2.3-1.8C10.8,10.9,9.7,10.5,8.7,10.5z"/>
	<g>
		<path id="path_150_" fill="#FF6600" d="M25.4,13.7c0.1,0.4,0.1,0.8,0,1.2l4.6,0v-1.2L25.4,13.7z"/>
		<path id="path_144_" fill="#FF6600" d="M21.6,11.1c0.4-0.1,0.7-0.1,1.1,0c0-1.5,0-3.1,0-4.6c-0.4,0-0.7,0-1.1,0L21.6,11.1z"/>
		<path id="path_140_" fill="#FF6600" d="M22.7,17.5c-0.4,0.1-0.8,0.1-1.2,0v5.2h1.2L22.7,17.5z"/>
		<path id="path_119_" fill="#FF6600" d="M24.7,16.4c-0.3,0.3-0.6,0.6-1,0.8l3.8,3.8l0.9-0.9L24.7,16.4z"/>
		<path id="path_48_" fill="#FF6600" d="M24.1,11.6c0.3,0.2,0.6,0.5,0.9,0.9l3.7-3.8l-0.9-0.9L24.1,11.6z"/>
	</g>
</g>
<g id="_x32_9-license-plate-light-bulb">
</g>
<g id="_x32_7-cornering-light-bulb">
</g>
<g id="_x32_6-center-high-mount-stop-light-bulb">
</g>
<g id="_x32_0-seat-belt-light-bulb">
</g>
<g id="_x30_6-ash-tray-light-bulb">
</g>
</svg>
