<?xml version="1.0" encoding="utf-8"?>
<!-- Generator: Adobe Illustrator 19.2.0, SVG Export Plug-In . SVG Version: 6.00 Build 0)  -->
<svg version="1.1" id="Icons" xmlns="http://www.w3.org/2000/svg" xmlns:xlink="http://www.w3.org/1999/xlink" x="0px" y="0px"
	 viewBox="0 0 30 30" enable-background="new 0 0 30 30" xml:space="preserve">
<g id="_x33_0-parking-light-bulb">
</g>
<g id="_x32_9-license-plate-light-bulb">
</g>
<g id="_x32_7-cornering-light-bulb">
</g>
<g id="_x32_6-center-high-mount-stop-light-bulb">
</g>
<g id="_x32_0-seat-belt-light-bulb">
</g>
<g id="_x31_9-radio-display-light">
	<rect id="path_134_" x="23.8" y="12.9" fill="#595959" width="1.4" height="4.3"/>
	<rect id="path_133_" x="21.4" y="13.6" fill="#FF6600" width="1.4" height="3.6"/>
	<rect id="path_132_" x="19.1" y="14.2" fill="#595959" width="1.4" height="3"/>
	<rect id="path_131_" x="16.7" y="15.1" fill="#FF6600" width="1.4" height="2.1"/>
	<rect id="path_130_" x="14.4" y="15.8" fill="#595959" width="1.4" height="1.4"/>
	<path id="path_129_" fill="#595959" d="M0,10.5v9l30,0v-9H0z M6.4,18.8c-2.1,0-3.8-1.7-3.8-3.8c0-2.1,1.7-3.8,3.8-3.8
		c2.1,0,3.8,1.7,3.8,3.8C10.2,17.1,8.5,18.8,6.4,18.8z M11.3,18c1.1-2,1.1-4,0-6L27,12c0.4,0,0.5,0.1,0.5,0.4c0,1.7,0,3.4,0,5.1
		c0,0.4-0.1,0.5-0.5,0.5H11.3z"/>
	<circle id="path_128_" fill="#595959" cx="6.4" cy="15" r="2.4"/>
</g>
<g id="_x30_6-ash-tray-light-bulb">
</g>
</svg>
