<?xml version="1.0" encoding="utf-8"?>
<!-- Generator: Adobe Illustrator 19.2.0, SVG Export Plug-In . SVG Version: 6.00 Build 0)  -->
<svg version="1.1" id="Icons" xmlns="http://www.w3.org/2000/svg" xmlns:xlink="http://www.w3.org/1999/xlink" x="0px" y="0px"
	 viewBox="0 0 30 30" enable-background="new 0 0 30 30" xml:space="preserve">
<g id="_x33_0-parking-light-bulb">
</g>
<g id="_x32_9-license-plate-light-bulb">
</g>
<g id="_x32_7-cornering-light-bulb">
</g>
<g id="_x32_6-center-high-mount-stop-light-bulb">
</g>
<g id="_x32_0-seat-belt-light-bulb">
	<path id="path_139_" fill="#FF6600" d="M13.2,16c3.5-2.8,5.5-6,6.1-10.4c-0.6-0.1-1.2-0.1-1.7-0.2l0,0.3c-0.5,3.5-2.4,6.5-5.2,8.7
		c-1.3,1-2.5,1.7-4,2.4C8.1,16.9,8,17,8.1,17.3c0.2,0.5,0.3,0.9,0.5,1.4c4.2-1.3,8.5-1.3,12.8-0.2c0.2-0.6,0.3-1.1,0.5-1.6
		c-1.3-0.4-2.8-0.7-4.3-0.8C16,16,14.7,16,13.2,16z"/>
	<path id="path_138_" fill="#595959" d="M15.5,5.6c1.6,0,2.9-1.2,2.9-2.8c0-1.5-1.3-2.8-2.8-2.8c-1.6,0-2.9,1.2-2.9,2.8
		C12.7,4.3,13.9,5.6,15.5,5.6z"/>
	<path id="path_137_" fill="#595959" d="M10.6,15.3c1.1-0.7,1.7-1.2,2.6-2.1c2-1.8,3.3-4.2,3.9-6.8c0.1-0.4,0.1-0.5-0.3-0.5
		c-0.1,0-0.2,0-0.4,0c-1,0-1.9,0-2.9,0c-0.8,0-1.6,0.4-2,1c-1.2,1.7-2.3,3.5-3.4,5.2c-0.2,0.3,0,0.5,0.3,0.8
		C9.2,13.7,9.9,14.5,10.6,15.3z M11.3,10.8c0,0.8,0,1.5,0,2.3C10.6,12.2,10.6,12.1,11.3,10.8z"/>
	<path id="path_136_" fill="#595959" d="M22,12.3c-0.8-1.3-1.9-2.8-2.8-4.2C18,12,15.7,14.4,14,15.8c0,0,1-0.2,2.9-0.1
		c1,0,2.5,0.3,2.5,0.3c0.8-0.8,1.8-1.8,2.5-2.6C22.2,13,22.2,12.7,22,12.3z M18.9,13.2c0-0.8,0-1.5,0-2.3
		C19.6,12.2,19.6,12.3,18.9,13.2z"/>
	<path id="path_135_" fill="#595959" d="M18.3,18.2c-0.8-0.1-2.9-0.2-2.9-0.2c-0.8,0-2.5,0.1-3.3,0.2c-0.5,0.1-1,0.1-1.3,0.6
		c-0.3,0.5-0.7,1.5-0.7,2c-0.1,0.8,0.4,1.7,0.6,2.5c0.3,0.9,0.6,1.8,0.8,2.7c0.3,0.8,0.5,1.7,0.8,2.5c0.2,0.6,0.4,1.3,1,1.4
		c0.3,0.1,3.5,0.1,3.8,0c0.6-0.2,0.8-0.8,1-1.4c0.3-0.8,0.5-1.7,0.8-2.5c0.3-0.9,0.6-1.8,0.8-2.7c0.2-0.8,0.7-1.7,0.6-2.5
		c-0.1-0.5-0.4-1.5-0.7-2C19.3,18.3,18.8,18.3,18.3,18.2z M16.7,23.4c-0.6,1.5-1,3.1-1.5,4.6c-0.4-1.2-0.8-2.5-1.2-3.7
		c-0.4-1.2-0.7-1.8-0.1-3c0.4-0.8,1.3-1.1,2.1-0.7C16.8,21.1,17,22.5,16.7,23.4z"/>
</g>
<g id="_x30_6-ash-tray-light-bulb">
</g>
</svg>
