<?xml version="1.0" encoding="utf-8"?>
<!-- Generator: Adobe Illustrator 19.2.0, SVG Export Plug-In . SVG Version: 6.00 Build 0)  -->
<svg version="1.1" id="Icons" xmlns="http://www.w3.org/2000/svg" xmlns:xlink="http://www.w3.org/1999/xlink" x="0px" y="0px"
	 viewBox="0 0 30 30" enable-background="new 0 0 30 30" xml:space="preserve">
<g id="_x33_2-side-marker-light-bulb-rear">
	<g>
		<path fill="#595959" d="M3.5,25h2C5.8,25,6,24.8,6,24.5V21h18v3.5c0,0.3,0.2,0.5,0.5,0.5h2c0.3,0,0.5-0.2,0.5-0.5v-7.6
			c-0.1,0-1.3-0.5-3-0.5l-18.2,0C4.2,16.4,3,17,3,17v7.5C3,24.8,3.2,25,3.5,25z"/>
		<path fill="#595959" d="M30,10.5c-0.1-0.3-0.3-0.3-0.5-0.4s-0.9-0.2-1.7-0.2c-1.4,0.2-1.4,0.5-1.5,0.6c0,0.1,0,0.8,0,0.8
			s-2.6-4.8-3.6-5.6c-0.3-0.3-0.7-0.5-0.9-0.5C20.8,5.1,17,5,15,5c-2,0-5.8,0-6.9,0.2c-0.2,0-0.6,0.2-0.9,0.5
			c-0.9,0.8-3.6,5.6-3.6,5.6s0-0.7,0-0.8c0-0.1-0.1-0.4-1.5-0.6c-0.7,0-1,0.1-1.7,0.2c-0.3,0.1-0.5,0.2-0.5,0.4
			c-0.1,0.2,0.3,1.2,0.4,1.3c0.2,0.2,0.7,0.4,1,0.4c0.2,0,1.4-0.1,1.7-0.2C3,12.4,3,12.7,3,12.7v3.3c0,0,1.2-0.6,2.9-0.7
			c0,0,10.1-0.2,18.1,0c1.7,0,2.9,0.5,3,0.5v-3.1c0,0,0-0.4-0.2-0.8c0.3,0,1.3,0.2,1.7,0.2c0.4,0,0.8-0.2,1-0.4
			C29.8,11.6,30.1,10.8,30,10.5z M4.1,14.1c0,0-0.1-1.1,0-1.4c0.1-0.3,0.4-0.5,0.8-0.6c0,0,5.4,0,5.8,0s1.3,2,1.3,2H4.1z M5.9,10
			l1.8-3.3C8,6.4,8.4,6,8.8,6h3h6.3h3.1c0.4,0,0.8,0.3,1,0.8l1.8,3.3H5.9z M25.8,14.1h-7.8c0,0,0.9-2,1.3-2s5.8,0,5.8,0
			c0.4,0.1,0.6,0.3,0.8,0.6C26,13,25.8,14.1,25.8,14.1z"/>
	</g>
	<circle id="path_80_" fill="#FF6600" cx="2" cy="15" r="2"/>
</g>
<g id="_x33_0-parking-light-bulb">
</g>
<g id="_x32_9-license-plate-light-bulb">
</g>
<g id="_x32_7-cornering-light-bulb">
</g>
<g id="_x32_6-center-high-mount-stop-light-bulb">
</g>
<g id="_x32_0-seat-belt-light-bulb">
</g>
<g id="_x30_6-ash-tray-light-bulb">
</g>
</svg>
