<?xml version="1.0" encoding="utf-8"?>
<!-- Generator: Adobe Illustrator 19.2.0, SVG Export Plug-In . SVG Version: 6.00 Build 0)  -->
<svg version="1.1" id="Icons" xmlns="http://www.w3.org/2000/svg" xmlns:xlink="http://www.w3.org/1999/xlink" x="0px" y="0px"
	 viewBox="0 0 30 30" enable-background="new 0 0 30 30" xml:space="preserve">
<g id="_x33_1-side-marker-light-bulb-front">
	<path id="path_143_" fill="#595959" d="M28.5,12.2c0.4,0,0.8-0.2,1-0.4c0.3-0.2,0.5-1.1,0.4-1.3s-0.3-0.3-0.5-0.4
		c-0.3-0.1-0.9-0.2-1.7-0.2l0,0c-1.4,0.2-1.4,0.5-1.5,0.6c0,0.1,0,0.8,0,0.8s-2.6-4.7-3.5-5.6c-0.3-0.3-0.7-0.5-0.9-0.5
		C20.8,5.1,17,5,15,5S9.2,5,8.1,5.2c-0.2,0-0.6,0.2-0.9,0.5c-0.9,0.8-3.5,5.6-3.5,5.6s0-0.7,0-0.8c0-0.1-0.1-0.4-1.5-0.6l0,0
		c-0.7,0-1,0.1-1.7,0.2c-0.3,0.1-0.5,0.2-0.5,0.4c-0.1,0.2,0.3,1.2,0.4,1.3s0.7,0.4,1,0.4c0.2,0,1.4-0.1,1.7-0.2
		C3,12.4,3,12.7,3,12.7v11.8C3,24.8,3.2,25,3.5,25h2C5.8,25,6,24.8,6,24.5V21h18v3.5c0,0.3,0.2,0.5,0.5,0.5h2c0.3,0,0.5-0.2,0.5-0.5
		V12.8c0,0,0-0.4-0.2-0.8C27.1,12,28.1,12.2,28.5,12.2z M7.7,6.8C7.9,6.4,8.3,6,8.8,6h12.4c0.4,0,0.8,0.3,1,0.8l2.3,4.2H5.4L7.7,6.8
		z M8.1,20.3H5.2c-0.8,0-0.3-1.1,0.3-1.3h4C9.5,19,8.5,20.2,8.1,20.3z M15,17.3c-0.7,0-1.4-0.6-1.4-1.3c0-0.5,0.4-1.3,1.4-1.3
		c1,0,1.4,0.8,1.4,1.3C16.4,16.7,15.7,17.3,15,17.3z M24.7,20.3h-2.9c-0.4-0.1-1.4-1.3-1.4-1.3h4C25,19.2,25.5,20.3,24.7,20.3z
		 M25.5,16.5l-6,0.3L21,15c0.3-0.2,1.6-0.4,2.1-0.4c0.4,0,1.3-0.1,1.7,0s0.8,0.4,0.8,0.7S25.5,16.5,25.5,16.5z M4.5,15.3
		c0-0.3,0.3-0.6,0.8-0.7s1.3,0,1.7,0c0.4,0,1.7,0.2,2.1,0.4l1.5,1.8l-6-0.3C4.5,16.5,4.5,15.5,4.5,15.3z"/>
	<circle id="path_76_" fill="#FF6600" cx="28" cy="14.6" r="2"/>
</g>
<g id="_x33_0-parking-light-bulb">
</g>
<g id="_x32_9-license-plate-light-bulb">
</g>
<g id="_x32_7-cornering-light-bulb">
</g>
<g id="_x32_6-center-high-mount-stop-light-bulb">
</g>
<g id="_x32_0-seat-belt-light-bulb">
</g>
<g id="_x30_6-ash-tray-light-bulb">
</g>
</svg>
