<?xml version="1.0" encoding="utf-8"?>
<!-- Generator: Adobe Illustrator 19.2.0, SVG Export Plug-In . SVG Version: 6.00 Build 0)  -->
<svg version="1.1" id="Icons" xmlns="http://www.w3.org/2000/svg" xmlns:xlink="http://www.w3.org/1999/xlink" x="0px" y="0px"
	 viewBox="0 0 30 30" enable-background="new 0 0 30 30" xml:space="preserve">
<g id="_x33_4-tail-light-bulb">
	<path id="path_88_" fill="#FF6600" d="M0,12.5C0,18.3,4.4,21,14,21h0.5l0.2-0.3c0.1-0.2,1.3-3.3,1.3-8.2s-1.2-8-1.3-8.1L14.5,4H14
		C1.2,4,0,9.8,0,12.5z M1,12.5C1,7.8,5.7,5.1,13.7,5c0.3,0.9,1.3,3.7,1.3,7.5s-0.9,6.6-1.3,7.5C5.1,19.9,1,17.4,1,12.5z"/>
	<path id="path_87_" fill="#FF6600" d="M19.3,19.8L19,18.5l11,3.3V23L19.3,19.8z"/>
	<path id="path_85_" fill="#FF6600" d="M30,16v1.2l-10-3L19.8,13L30,16z"/>
	<path id="path_83_" fill="#FF6600" d="M30,10v1.3l-10.8-3L19,7L30,10z"/>
</g>
<g id="_x33_0-parking-light-bulb">
</g>
<g id="_x32_9-license-plate-light-bulb">
</g>
<g id="_x32_7-cornering-light-bulb">
</g>
<g id="_x32_6-center-high-mount-stop-light-bulb">
</g>
<g id="_x32_0-seat-belt-light-bulb">
</g>
<g id="_x30_6-ash-tray-light-bulb">
</g>
</svg>
