<?xml version="1.0" encoding="utf-8"?>
<!-- Generator: Adobe Illustrator 19.2.0, SVG Export Plug-In . SVG Version: 6.00 Build 0)  -->
<svg version="1.1" id="Icons" xmlns="http://www.w3.org/2000/svg" xmlns:xlink="http://www.w3.org/1999/xlink" x="0px" y="0px"
	 viewBox="0 0 30 30" enable-background="new 0 0 30 30" xml:space="preserve">
<g id="_x33_0-parking-light-bulb">
</g>
<g id="_x32_9-license-plate-light-bulb">
</g>
<g id="_x32_7-cornering-light-bulb">
</g>
<g id="_x32_6-center-high-mount-stop-light-bulb">
</g>
<g id="_x32_1-trunk-or-cargo-area-light">
	<path id="path_36_" fill="#FF6600" d="M26.2,5.1c-0.5,0.3-1,0.9-1.2,1.2l-3.3,5.1l6.1,1.3l0.4-7.4C27.6,4.9,26.5,4.9,26.2,5.1z"/>
	<path id="path_21_" fill="#595959" d="M14.5,19c-1.9,0-3.5,1.6-3.5,3.5s1.6,3.5,3.5,3.5s3.5-1.6,3.5-3.5S16.4,19,14.5,19z M14.5,25
		c-1.4,0-2.5-1.1-2.5-2.5c0-1.4,1.1-2.5,2.5-2.5s2.5,1.1,2.5,2.5C17,23.9,15.9,25,14.5,25z"/>
	<path id="path_34_" fill="#595959" d="M27.9,12.6c-0.4-0.3-6-1.2-6-1.2l0,0l3.3-5.1c0.1-0.2,0.8-1,1.2-1.2c0.3-0.1,1.3,0.1,2,0.4
		L28.6,5l0.2-0.4c0,0-2-0.9-2.9-0.4c-0.8,0.4-1.6,1.4-1.6,1.5l-3.5,5.5c0,0-6.8-4-10.6-4.6c-2.4-0.4-5.8-0.4-8-0.3
		C2,6.8,1.7,7.4,1.5,8.1C4.4,8,6,8,8,8.1c2.2,0.2,4.7,0.8,5.1,1.4c0.4,0.5,0.8,1.3-0.6,3.3L0.1,13.4c0,0-0.1,0.9-0.1,1.4
		c0,3.3,0.8,6.4,2.4,9c0,0,6.6,0,6.8,0c0.2,0,0.3-0.4,0.3-1.6c0-2.4,1-4.5,5-4.5s5,3,5,4.5c0,1.5,0,1.6,0,1.6h3.3
		c0,0,3.4-0.9,4.3-1.3c0.9-0.3,2.9-1,2.9-1.3v-4c0-0.3-1.4-1-1.4-1S28.5,13.1,27.9,12.6z"/>
</g>
<g id="_x32_0-seat-belt-light-bulb">
</g>
<g id="_x30_6-ash-tray-light-bulb">
</g>
</svg>
