<?xml version="1.0" encoding="utf-8"?>
<!-- Generator: Adobe Illustrator 19.2.0, SVG Export Plug-In . SVG Version: 6.00 Build 0)  -->
<svg version="1.1" id="Icons" xmlns="http://www.w3.org/2000/svg" xmlns:xlink="http://www.w3.org/1999/xlink" x="0px" y="0px"
	 viewBox="0 0 30 30" enable-background="new 0 0 30 30" xml:space="preserve">
<g id="_x33_0-parking-light-bulb">
</g>
<g id="_x32_9-license-plate-light-bulb">
</g>
<g id="_x32_7-cornering-light-bulb">
</g>
<g id="_x32_6-center-high-mount-stop-light-bulb">
</g>
<g id="_x32_3-vanity-mirror-light-bulb">
	<path fill="#FF6600" d="M7.1,2.3v0.3h1.4c0,0.1,0,0.2,0.1,0.3L7.7,3.8L8,4l0.9-0.9c0.1,0,0.1,0.1,0.2,0.1v0.9h0.3V3.2
		c0.1,0,0.1-0.1,0.2-0.1L10.5,4l0.2-0.2L9.8,2.9c0-0.1,0.1-0.1,0.1-0.2l1.4,0V2.3H7.1z"/>
	<path id="path_141_" fill="#595959" d="M12.7,1.8H3.2c-1.1,0-2,0.9-2,2v1.9c0,1.1,0.9,2,2,2h9.6c1.1,0,2-0.9,2-2V3.8
		C14.7,2.7,13.8,1.8,12.7,1.8z M11.9,4.6H6.5c-0.6,0-1.1-0.5-1.1-1.1c0-0.6,0.5-1.1,1.1-1.1h5.4c0.6,0,1.1,0.5,1.1,1.1
		C13.1,4.1,12.6,4.6,11.9,4.6z"/>
	<path fill="#595959" d="M30,9.7c-0.1-0.5-0.5-0.6-0.9-0.7c-0.4-0.1-1.7-0.4-3-0.4c-2.4,0.4-2.4,0.9-2.6,1.1c0,0.2,0,1.5,0,1.5
		s-4.6-8.4-6.3-9.9c-0.6-0.5-1.3-0.9-1.7-0.9C13.7,0.2,7.1,0,3.5,0C0,0,0,0,0,0v30h24.8V13.9c0,0,0-0.7-0.4-1.5c0.6,0,2.3,0.4,3,0.4
		c0.7,0,1.4-0.3,1.8-0.7C29.7,11.6,30.1,10.2,30,9.7z M0,1.8h14.5c0.7,0,1.4,0.6,1.8,1.3l4.1,7.5H0V1.8z M3.5,21.8
		c-1.3,0-2.4-1.1-2.4-2.4c0-0.9,0.7-2.4,2.4-2.4c1.8,0,2.4,1.5,2.4,2.4C5.9,20.7,4.8,21.8,3.5,21.8z M20.8,27h-5.1
		c-0.7-0.2-2.4-2.2-2.4-2.2h7.1C21.2,25.1,22.1,27,20.8,27z M22.1,20.4l-10.6,0.4l2.7-3.1c0.6-0.4,2.9-0.6,3.6-0.7
		c0.8-0.1,2.3-0.2,3,0c0.7,0.2,1.3,0.7,1.3,1.2C22.1,18.7,22.1,20.4,22.1,20.4z"/>
</g>
<g id="_x32_0-seat-belt-light-bulb">
</g>
<g id="_x30_6-ash-tray-light-bulb">
</g>
</svg>
